<?xml version="1.0" encoding="UTF-8"?>
<svg id="Layer_1" data-name="Layer 1" xmlns="http://www.w3.org/2000/svg" viewBox="0 0 630.4 81.23">
  <g>
    <path d="m4.35,28.9C11.62,14.47,29.53,4.7,49.49,4.05c3.58-.11,3.8,0,3.91.22.22.43.54,2.93.76,5.86,0,3.91-.33,10.53-3.04,13.35-1.63,1.63-3.8,2.39-6.62,2.39-1.41,0-2.93-.22-4.78-.54-2.93-.54-5.64-.87-8.25-.87-10.31,0-18.34,4.12-21.27,11.39-.98,2.39-1.52,6.62-1.19,8.79.33,1.84.98,4.56,1.09,4.78.11.11.22.54.33.98.11.54.65,1.63,1.09,2.71,4.34,8.9,12.05,13.24,21.7,13.24,4.45,0,9.22-.87,14.11-2.6,3.26-1.19,3.47-1.3,3.58-1.19.11.11.22,12.48.11,15.3l-.11,2.28-2.06-.11c-17.04,0-36.79-8.14-44.6-24.09C-.1,47.13-.1,37.58,4.35,28.9Z" style="fill: none; stroke: #000; stroke-width: 2px;"/>
    <path d="m80.85,79.8h-20.29V4.27h8.03c6.95,0,8.03.11,8.03.33,0,.11-.65.87-1.52,1.63-5.97,6.19-8.68,16.49-8.9,24.96l-.11,4.01,21.05.22c11.5,0,21.05.11,21.05.11.11-.11-1.41-3.04-2.39-4.67-2.28-3.8-2.82-4.56-4.67-7.05-3.58-5.21-5.64-8.9-5.64-15.41,0-1.74.11-3.47.22-3.8l.11-.54h20.29v75.75h-8.03c-7.16,0-8.03,0-8.03-.22s.65-.87,1.41-1.74c4.01-3.91,7.38-11.72,8.68-19.86.22-1.52.54-7.81.43-10.53l-.11-1.95-.87-.43c-5.53-2.39-11.39-3.36-17.36-3.47-6.08-.11-10.85.54-16.39,2.39-2.6.87-7.6,3.15-7.7,3.58-.22.54,3.91,7.81,6.4,11.39,4.23,5.75,6.62,9.22,6.62,16.6,0,1.84-.11,3.47-.22,3.8l-.11.43Z" style="fill: none; stroke: #000; stroke-width: 2px;"/>
    <path d="m125.88,76.11c0-2.06-.11-18.99-.11-37.76,0-28.43,0-33.97.22-34.18.22-.11,7.38-.11,27.35-.11h27.02v7.27c.11,6.08.11,7.27-.11,7.27-.11,0-.33-.11-.54-.33-1.41-1.84-8.79-4.56-11.07-4.99-1.09-.22-2.71-.33-4.45-.33-12.26,0-21.05,9.33-25.83,19.97-.87,2.06-1.19,2.93-1.09,2.93s.33-.33.65-.76c3.58-4.23,8.68-6.95,12.91-6.95.98,0,1.95.22,2.82.54,4.12,1.52,4.78,6.62,1.52,11.61-.33.33-.54.65-.76.65-.11,0-.54-.22-.98-.65-1.52-1.08-2.93-1.52-4.88-1.63-1.41-.11-1.84,0-2.93.33-3.26,1.09-5.97,4.23-6.84,8.03-.87,3.91.87,9.87,3.8,13.02,1.41,1.52,2.5,2.06,4.45,2.39,2.6.33,4.23-.11,9.87-2.28,5.53-2.28,8.57-3.04,12.91-3.36,2.39-.11,3.69,0,4.99.54,3.8,1.84,5.86,8.57,5.32,17.47-.22,2.6-.22,3.36-.54,4.56l-.11.43h-53.5l-.11-3.69Z" style="fill: none; stroke: #000; stroke-width: 2px;"/>
    <path d="m182.63,4.49l-.11-.43h7.92c4.45,0,8.14.11,8.25.11.11.11.54,1.63.98,3.47.43,1.74.87,3.36.98,3.58.11.22.65,1.95,1.08,3.91.54,1.84,1.41,5.32,2.06,7.6.54,2.28,1.41,5.53,1.95,7.49.43,1.84.98,3.8,1.19,4.23.11.43.65,2.5,1.19,4.67.54,2.06,1.52,5.43,1.95,7.38.54,1.95,1.41,5.1,1.84,6.95.43,1.74,1.08,3.8,1.3,4.67.22.76.76,2.82,1.19,4.56,1.63,6.19,2.6,9.55,2.71,9.55s.76-.22,1.3-.65c5.1-3.26,7.49-9.66,7.49-15.52,0-4.34-1.19-8.25-3.69-11.83-4.67-6.08-7.49-12.05-8.36-18.01-.33-1.41-.33-5.75-.22-6.95.87-5.32,3.15-10.2,6.51-13.89l1.19-1.3h15.3l-.98,1.09c-5.43,5.86-8.46,12.37-8.9,18.99-.22,3.47.43,6.62,1.95,9.66,1.3,2.71,2.39,3.91,6.19,7.05,7.16,5.86,10.2,12.37,12.37,21.16,1.74,6.51,2.82,10.2,3.04,10.2,0,0,.65-.22,1.3-.65,5.1-3.26,7.38-9.66,7.38-15.52,0-4.34-1.09-8.36-3.8-11.83-4.67-6.08-7.38-12.05-8.36-18.01-.22-1.41-.22-5.75,0-6.95.76-5.32,2.93-10.09,6.4-13.89l1.19-1.3h7.6c4.23,0,7.7,0,7.7.11,0,0-.22.33-.54.54-2.5,2.39-4.67,6.19-5.97,10.63-1.84,5.86-1.84,14.11.11,21.49.65,3.04,1.52,5.86,1.95,6.73.43,1.09,1.09,3.58,1.52,5.64.43,2.71.43,7.92-.11,10.96-2.5,14.87-14.43,19.53-27.78,19.86l-4.56.11-1.52-6.29c-.76-3.36-1.52-6.08-1.52-6.08-.11,0-.33.43-.65,1.09-1.84,3.47-7.05,7.49-12.48,9.22-4.12,1.41-6.62,1.74-12.37,1.95l-4.56.11-3.58-14.65v.11c-1.95-8.03-3.69-14.98-3.8-15.41-.33-.87-2.06-8.14-3.15-12.7-.33-1.52-.87-3.47-1.09-4.23-.11-.65-1.52-6.19-3.04-12.26-1.52-6.08-2.82-11.72-3.04-12.48-.43-1.41-.76-3.26-.98-4.01Z" style="fill: none; stroke: #000; stroke-width: 2px;"/>
    <path d="m301.12,4.05c5.43,0,10.85,1.09,15.63,3.36,1.74.76,4.67,2.6,5.32,3.26.54.43.54.54.54,2.17,0,5.32-3.69,9.77-9.12,9.77-2.93,0-4.78-.87-7.71-4.01-3.26-3.69-6.73-6.08-11.72-6.08-3.91,0-7.92,1.52-10.74,4.23-3.15,3.15-3.91,5.21-2.5,7.7,1.19,2.28,2.82,3.04,8.25,3.69,12.59,1.74,23.66,4.99,31.69,15.63,2.6,3.47,3.91,7.49,4.12,11.72.33,7.05-3.36,13.78-10.09,18.67-3.58,2.5-8.79,4.56-14,5.53-2.39.33-7.81.43-10.42.11-5.97-.76-11.94-3.04-16.17-6.19l-.76-.54v-1.84c0-5.53,3.47-9.55,9.12-9.77,3.04,0,4.78.98,7.7,4.12,3.47,3.47,6.84,5.97,11.94,5.97,3.91,0,7.81-1.52,10.63-4.23,3.04-3.15,3.8-5.32,2.5-7.7-1.19-2.28-2.93-3.04-8.25-3.69-12.91-1.74-23.44-4.78-31.8-15.63-2.5-3.47-3.91-7.49-4.12-11.72-.33-8.03,4.45-15.63,12.7-20.18,4.99-2.93,11.18-4.34,17.25-4.34Z" style="fill: none; stroke: #000; stroke-width: 2px;"/>
    <path d="m327.92,4.05h55.78v5.86c0,3.91,0,5.86-.22,5.97,0,0-.65-.22-1.19-.65-3.26-2.28-6.62-3.15-10.42-2.82-4.77.54-8.14,2.28-14,7.16-8.25,6.73-14.32,15.84-16.06,24.09-.54,2.5-.54,7.05-.11,8.9,1.52,6.19,7.16,8.9,13.02,9.44,2.71.22,7.6-.54,11.39-1.74.98-.43,1.95-.65,2.06-.65.33,0,.33,18.45,0,18.77-.22.43-3.58,1.19-6.08,1.41-1.63.33-4.12.33-5.53.11-12.81-1.41-20.29-11.5-21.38-23.77-.43-3.04-.11-8.79.43-12.05,1.84-10.85,6.84-21.27,14.43-30.17.87-1.09.65-.98-1.19.87-3.69,3.69-7.27,6.84-12.7,6.84-2.06,0-2.17,0-3.15-.43-2.28-1.19-3.69-3.36-4.67-7.05-.11-.87-.22-2.28-.33-5.64l-.11-4.45Z" style="fill: none; stroke: #000; stroke-width: 2px;"/>
    <path d="m388.25,80.23V4.05h10.2c5.64,0,11.18.11,12.37.22,12.26.87,28.21,6.19,32.12,19.21.43,1.19.43,1.74.43,4.23,0,2.82,0,3.04-.54,4.56-3.36,9.77-12.16,14.54-22.14,15.3-3.26.33-7.6-.11-10.31-.76-1.84-.54-1.08-.11,1.63.76,1.52.43,3.58,1.09,4.45,1.41,1.63.33,3.15.76,10.2,2.71,2.39.65,4.99,1.84,6.84,3.15,4.88,3.04,6.51,8.36,7.16,13.67.33,3.15.11,8.25-.33,10.96l-.11.65h-20.18l1.52-1.63c3.36-3.47,4.88-6.84,4.88-10.53,0-6.19-4.67-10.09-10.09-12.05-8.47-3.36-16.39-9.12-21.38-16.93-.54-.76-.98-1.52-1.09-1.52,0,0,0,.33.11.87.65,8.68,3.36,13.78,8.36,20.84,3.26,4.67,4.34,6.29,5.21,8.79,1.08,2.71,1.3,4.12,1.3,7.92,0,1.84,0,3.58-.11,3.91l-.11.43h-20.4Zm9.66-61.42c-.22,1.08.22,3.8.65,5.21,1.63,4.88,5.43,8.46,10.96,9.98,2.82.76,5.75.87,9.01.43,3.91-.65,8.46-2.39,11.39-5.32,2.93-2.93,1.41-7.05-3.47-9.44-2.5-1.3-4.12-1.52-7.6-1.63-4.12,0-5.97.54-9.11,2.6-2.39,1.63-3.47,1.95-5.43,1.95-1.52,0-1.95,0-2.71-.43-1.19-.54-2.39-1.84-3.04-3.15l-.54-.87-.11.65Z" style="fill: none; stroke: #000; stroke-width: 2px;"/>
    <path d="m450.53,76.11c0-2.06-.11-18.99-.11-37.76,0-28.43,0-33.97.22-34.18.22-.11,7.38-.11,27.35-.11h27.02v7.27c.11,6.08.11,7.27-.11,7.27-.11,0-.33-.11-.54-.33-1.41-1.84-8.79-4.56-11.07-4.99-1.08-.22-2.71-.33-4.45-.33-12.26,0-21.05,9.33-25.83,19.97-.87,2.06-1.19,2.93-1.08,2.93s.33-.33.65-.76c3.58-4.23,8.68-6.95,12.91-6.95.98,0,1.95.22,2.82.54,4.12,1.52,4.77,6.62,1.52,11.61-.33.33-.54.65-.76.65-.11,0-.54-.22-.98-.65-1.52-1.08-2.93-1.52-4.88-1.63-1.41-.11-1.84,0-2.93.33-3.26,1.09-5.97,4.23-6.84,8.03-.87,3.91.87,9.87,3.8,13.02,1.41,1.52,2.5,2.06,4.45,2.39,2.6.33,4.23-.11,9.88-2.28,5.53-2.28,8.57-3.04,12.91-3.36,2.39-.11,3.69,0,4.99.54,3.8,1.84,5.86,8.57,5.32,17.47-.22,2.6-.22,3.36-.54,4.56l-.11.43h-53.5l-.11-3.69Z" style="fill: none; stroke: #000; stroke-width: 2px;"/>
    <path d="m511.95,76.11c0-2.06-.11-18.99-.11-37.76,0-28.43,0-33.97.22-34.18.22-.11,7.38-.11,27.35-.11h27.02v7.27c.11,6.08.11,7.27-.11,7.27-.11,0-.33-.11-.54-.33-1.41-1.84-8.79-4.56-11.07-4.99-1.08-.22-2.71-.33-4.45-.33-12.26,0-21.05,9.33-25.83,19.97-.87,2.06-1.19,2.93-1.08,2.93s.33-.33.65-.76c3.58-4.23,8.68-6.95,12.91-6.95.98,0,1.95.22,2.82.54,4.12,1.52,4.77,6.62,1.52,11.61-.33.33-.54.65-.76.65-.11,0-.54-.22-.98-.65-1.52-1.08-2.93-1.52-4.88-1.63-1.41-.11-1.84,0-2.93.33-3.26,1.09-5.97,4.23-6.84,8.03-.87,3.91.87,9.87,3.8,13.02,1.41,1.52,2.5,2.06,4.45,2.39,2.6.33,4.23-.11,9.88-2.28,5.53-2.28,8.57-3.04,12.91-3.36,2.39-.11,3.69,0,4.99.54,3.8,1.84,5.86,8.57,5.32,17.47-.22,2.6-.22,3.36-.54,4.56l-.11.43h-53.5l-.11-3.69Z" style="fill: none; stroke: #000; stroke-width: 2px;"/>
    <path d="m569.35,4.05h55.78v5.86c0,3.91,0,5.86-.22,5.97,0,0-.65-.22-1.19-.65-3.26-2.28-6.62-3.15-10.42-2.82-4.77.54-8.14,2.28-14,7.16-8.25,6.73-14.32,15.84-16.06,24.09-.54,2.5-.54,7.05-.11,8.9,1.52,6.19,7.16,8.9,13.02,9.44,2.71.22,7.6-.54,11.39-1.74.98-.43,1.95-.65,2.06-.65.33,0,.33,18.45,0,18.77-.22.43-3.58,1.19-6.08,1.41-1.63.33-4.12.33-5.53.11-12.81-1.41-20.29-11.5-21.38-23.77-.43-3.04-.11-8.79.43-12.05,1.85-10.85,6.84-21.27,14.43-30.17.87-1.09.65-.98-1.19.87-3.69,3.69-7.27,6.84-12.7,6.84-2.06,0-2.17,0-3.15-.43-2.28-1.19-3.69-3.36-4.67-7.05-.11-.87-.22-2.28-.33-5.64l-.11-4.45Z" style="fill: none; stroke: #000; stroke-width: 2px;"/>
  </g>
  <g>
    <path d="m8.62,25.89C15.9,11.46,33.8,1.69,53.77,1.04c3.58-.11,3.8,0,3.91.22.22.43.54,2.93.76,5.86,0,3.91-.33,10.53-3.04,13.35-1.63,1.63-3.8,2.39-6.62,2.39-1.41,0-2.93-.22-4.78-.54-2.93-.54-5.64-.87-8.25-.87-10.31,0-18.34,4.12-21.27,11.39-.98,2.39-1.52,6.62-1.19,8.79.33,1.84.98,4.56,1.09,4.78.11.11.22.54.33.98.11.54.65,1.63,1.09,2.71,4.34,8.9,12.05,13.24,21.7,13.24,4.45,0,9.22-.87,14.11-2.6,3.26-1.19,3.47-1.3,3.58-1.19.11.11.22,12.48.11,15.3l-.11,2.28-2.06-.11c-17.04,0-36.79-8.14-44.6-24.09-4.34-8.79-4.34-18.34.11-27.02Z" style="fill: #fff; stroke: #000; stroke-width: 2px;"/>
    <path d="m85.12,76.79h-20.29V1.26h8.03c6.95,0,8.03.11,8.03.33,0,.11-.65.87-1.52,1.63-5.97,6.19-8.68,16.49-8.9,24.96l-.11,4.01,21.05.22c11.5,0,21.05.11,21.05.11.11-.11-1.41-3.04-2.39-4.67-2.28-3.8-2.82-4.56-4.67-7.05-3.58-5.21-5.64-8.9-5.64-15.41,0-1.74.11-3.47.22-3.8l.11-.54h20.29v75.75h-8.03c-7.16,0-8.03,0-8.03-.22s.65-.87,1.41-1.74c4.01-3.91,7.38-11.72,8.68-19.86.22-1.52.54-7.81.43-10.53l-.11-1.95-.87-.43c-5.53-2.39-11.39-3.36-17.36-3.47-6.08-.11-10.85.54-16.39,2.39-2.6.87-7.6,3.15-7.7,3.58-.22.54,3.91,7.81,6.4,11.39,4.23,5.75,6.62,9.22,6.62,16.6,0,1.84-.11,3.47-.22,3.8l-.11.43Z" style="fill: #fff; stroke: #000; stroke-width: 2px;"/>
    <path d="m130.15,73.1c0-2.06-.11-18.99-.11-37.76,0-28.43,0-33.97.22-34.18.22-.11,7.38-.11,27.35-.11h27.02v7.27c.11,6.08.11,7.27-.11,7.27-.11,0-.33-.11-.54-.33-1.41-1.84-8.79-4.56-11.07-4.99-1.09-.22-2.71-.33-4.45-.33-12.26,0-21.05,9.33-25.83,19.97-.87,2.06-1.19,2.93-1.09,2.93s.33-.33.65-.76c3.58-4.23,8.68-6.95,12.91-6.95.98,0,1.95.22,2.82.54,4.12,1.52,4.78,6.62,1.52,11.61-.33.33-.54.65-.76.65-.11,0-.54-.22-.98-.65-1.52-1.08-2.93-1.52-4.88-1.63-1.41-.11-1.84,0-2.93.33-3.26,1.09-5.97,4.23-6.84,8.03-.87,3.91.87,9.87,3.8,13.02,1.41,1.52,2.5,2.06,4.45,2.39,2.6.33,4.23-.11,9.87-2.28,5.53-2.28,8.57-3.04,12.91-3.36,2.39-.11,3.69,0,4.99.54,3.8,1.84,5.86,8.57,5.32,17.47-.22,2.6-.22,3.36-.54,4.56l-.11.43h-53.5l-.11-3.69Z" style="fill: #fff; stroke: #000; stroke-width: 2px;"/>
    <path d="m186.9,1.48l-.11-.43h7.92c4.45,0,8.14.11,8.25.11.11.11.54,1.63.98,3.47.43,1.74.87,3.36.98,3.58.11.22.65,1.95,1.08,3.91.54,1.84,1.41,5.32,2.06,7.6.54,2.28,1.41,5.53,1.95,7.49.43,1.84.98,3.8,1.19,4.23.11.43.65,2.5,1.19,4.67.54,2.06,1.52,5.43,1.95,7.38.54,1.95,1.41,5.1,1.84,6.95.43,1.74,1.08,3.8,1.3,4.67.22.76.76,2.82,1.19,4.56,1.63,6.19,2.6,9.55,2.71,9.55s.76-.22,1.3-.65c5.1-3.26,7.49-9.66,7.49-15.52,0-4.34-1.19-8.25-3.69-11.83-4.67-6.08-7.49-12.05-8.36-18.01-.33-1.41-.33-5.75-.22-6.95.87-5.32,3.15-10.2,6.51-13.89l1.19-1.3h15.3l-.98,1.09c-5.43,5.86-8.46,12.37-8.9,18.99-.22,3.47.43,6.62,1.95,9.66,1.3,2.71,2.39,3.91,6.19,7.05,7.16,5.86,10.2,12.37,12.37,21.16,1.74,6.51,2.82,10.2,3.04,10.2,0,0,.65-.22,1.3-.65,5.1-3.26,7.38-9.66,7.38-15.52,0-4.34-1.09-8.36-3.8-11.83-4.67-6.08-7.38-12.05-8.36-18.01-.22-1.41-.22-5.75,0-6.95.76-5.32,2.93-10.09,6.4-13.89l1.19-1.3h7.6c4.23,0,7.7,0,7.7.11,0,0-.22.33-.54.54-2.5,2.39-4.67,6.19-5.97,10.63-1.84,5.86-1.84,14.11.11,21.49.65,3.04,1.52,5.86,1.95,6.73.43,1.09,1.09,3.58,1.52,5.64.43,2.71.43,7.92-.11,10.96-2.5,14.87-14.43,19.53-27.78,19.86l-4.56.11-1.52-6.29c-.76-3.36-1.52-6.08-1.52-6.08-.11,0-.33.43-.65,1.09-1.84,3.47-7.05,7.49-12.48,9.22-4.12,1.41-6.62,1.74-12.37,1.95l-4.56.11-3.58-14.65v.11c-1.95-8.03-3.69-14.98-3.8-15.41-.33-.87-2.06-8.14-3.15-12.7-.33-1.52-.87-3.47-1.09-4.23-.11-.65-1.52-6.19-3.04-12.26-1.52-6.08-2.82-11.72-3.04-12.48-.43-1.41-.76-3.26-.98-4.01Z" style="fill: #fff; stroke: #000; stroke-width: 2px;"/>
    <path d="m305.4,1.04c5.43,0,10.85,1.09,15.63,3.36,1.74.76,4.67,2.6,5.32,3.26.54.43.54.54.54,2.17,0,5.32-3.69,9.77-9.12,9.77-2.93,0-4.78-.87-7.71-4.01-3.26-3.69-6.73-6.08-11.72-6.08-3.91,0-7.92,1.52-10.74,4.23-3.15,3.15-3.91,5.21-2.5,7.7,1.19,2.28,2.82,3.04,8.25,3.69,12.59,1.74,23.66,4.99,31.69,15.63,2.6,3.47,3.91,7.49,4.12,11.72.33,7.05-3.36,13.78-10.09,18.67-3.58,2.5-8.79,4.56-14,5.53-2.39.33-7.81.43-10.42.11-5.97-.76-11.94-3.04-16.17-6.19l-.76-.54v-1.84c0-5.53,3.47-9.55,9.12-9.77,3.04,0,4.78.98,7.7,4.12,3.47,3.47,6.84,5.97,11.94,5.97,3.91,0,7.81-1.52,10.63-4.23,3.04-3.15,3.8-5.32,2.5-7.7-1.19-2.28-2.93-3.04-8.25-3.69-12.91-1.74-23.44-4.78-31.8-15.63-2.5-3.47-3.91-7.49-4.12-11.72-.33-8.03,4.45-15.63,12.7-20.18,4.99-2.93,11.18-4.34,17.25-4.34Z" style="fill: #fff; stroke: #000; stroke-width: 2px;"/>
    <path d="m332.19,1.04h55.78v5.86c0,3.91,0,5.86-.22,5.97,0,0-.65-.22-1.19-.65-3.26-2.28-6.62-3.15-10.42-2.82-4.77.54-8.14,2.28-14,7.16-8.25,6.73-14.32,15.84-16.06,24.09-.54,2.5-.54,7.05-.11,8.9,1.52,6.19,7.16,8.9,13.02,9.44,2.71.22,7.6-.54,11.39-1.74.98-.43,1.95-.65,2.06-.65.33,0,.33,18.45,0,18.77-.22.43-3.58,1.19-6.08,1.41-1.63.33-4.12.33-5.53.11-12.81-1.41-20.29-11.5-21.38-23.77-.43-3.04-.11-8.79.43-12.05,1.84-10.85,6.84-21.27,14.43-30.17.87-1.09.65-.98-1.19.87-3.69,3.69-7.27,6.84-12.7,6.84-2.06,0-2.17,0-3.15-.43-2.28-1.19-3.69-3.36-4.67-7.05-.11-.87-.22-2.28-.33-5.64l-.11-4.45Z" style="fill: #fff; stroke: #000; stroke-width: 2px;"/>
    <path d="m392.52,77.22V1.04h10.2c5.64,0,11.18.11,12.37.22,12.26.87,28.21,6.19,32.12,19.21.43,1.19.43,1.74.43,4.23,0,2.82,0,3.04-.54,4.56-3.36,9.77-12.16,14.54-22.14,15.3-3.26.33-7.6-.11-10.31-.76-1.84-.54-1.08-.11,1.63.76,1.52.43,3.58,1.09,4.45,1.41,1.63.33,3.15.76,10.2,2.71,2.39.65,4.99,1.84,6.84,3.15,4.88,3.04,6.51,8.36,7.16,13.67.33,3.15.11,8.25-.33,10.96l-.11.65h-20.18l1.52-1.63c3.36-3.47,4.88-6.84,4.88-10.53,0-6.19-4.67-10.09-10.09-12.05-8.47-3.36-16.39-9.12-21.38-16.93-.54-.76-.98-1.52-1.09-1.52,0,0,0,.33.11.87.65,8.68,3.36,13.78,8.36,20.84,3.26,4.67,4.34,6.29,5.21,8.79,1.08,2.71,1.3,4.12,1.3,7.92,0,1.84,0,3.58-.11,3.91l-.11.43h-20.4Zm9.66-61.42c-.22,1.08.22,3.8.65,5.21,1.63,4.88,5.43,8.46,10.96,9.98,2.82.76,5.75.87,9.01.43,3.91-.65,8.46-2.39,11.39-5.32,2.93-2.93,1.41-7.05-3.47-9.44-2.5-1.3-4.12-1.52-7.6-1.63-4.12,0-5.97.54-9.11,2.6-2.39,1.63-3.47,1.95-5.43,1.95-1.52,0-1.95,0-2.71-.43-1.19-.54-2.39-1.84-3.04-3.15l-.54-.87-.11.65Z" style="fill: #fff; stroke: #000; stroke-width: 2px;"/>
    <path d="m454.81,73.1c0-2.06-.11-18.99-.11-37.76,0-28.43,0-33.97.22-34.18.22-.11,7.38-.11,27.35-.11h27.02v7.27c.11,6.08.11,7.27-.11,7.27-.11,0-.33-.11-.54-.33-1.41-1.84-8.79-4.56-11.07-4.99-1.08-.22-2.71-.33-4.45-.33-12.26,0-21.05,9.33-25.83,19.97-.87,2.06-1.19,2.93-1.08,2.93s.33-.33.65-.76c3.58-4.23,8.68-6.95,12.91-6.95.98,0,1.95.22,2.82.54,4.12,1.52,4.77,6.62,1.52,11.61-.33.33-.54.65-.76.65-.11,0-.54-.22-.98-.65-1.52-1.08-2.93-1.52-4.88-1.63-1.41-.11-1.84,0-2.93.33-3.26,1.09-5.97,4.23-6.84,8.03-.87,3.91.87,9.87,3.8,13.02,1.41,1.52,2.5,2.06,4.45,2.39,2.6.33,4.23-.11,9.88-2.28,5.53-2.28,8.57-3.04,12.91-3.36,2.39-.11,3.69,0,4.99.54,3.8,1.84,5.86,8.57,5.32,17.47-.22,2.6-.22,3.36-.54,4.56l-.11.43h-53.5l-.11-3.69Z" style="fill: #fff; stroke: #000; stroke-width: 2px;"/>
    <path d="m516.22,73.1c0-2.06-.11-18.99-.11-37.76,0-28.43,0-33.97.22-34.18.22-.11,7.38-.11,27.35-.11h27.02v7.27c.11,6.08.11,7.27-.11,7.27-.11,0-.33-.11-.54-.33-1.41-1.84-8.79-4.56-11.07-4.99-1.08-.22-2.71-.33-4.45-.33-12.26,0-21.05,9.33-25.83,19.97-.87,2.06-1.19,2.93-1.08,2.93s.33-.33.65-.76c3.58-4.23,8.68-6.95,12.91-6.95.98,0,1.95.22,2.82.54,4.12,1.52,4.77,6.62,1.52,11.61-.33.33-.54.65-.76.65-.11,0-.54-.22-.98-.65-1.52-1.08-2.93-1.52-4.88-1.63-1.41-.11-1.84,0-2.93.33-3.26,1.09-5.97,4.23-6.84,8.03-.87,3.91.87,9.87,3.8,13.02,1.41,1.52,2.5,2.06,4.45,2.39,2.6.33,4.23-.11,9.88-2.28,5.53-2.28,8.57-3.04,12.91-3.36,2.39-.11,3.69,0,4.99.54,3.8,1.84,5.86,8.57,5.32,17.47-.22,2.6-.22,3.36-.54,4.56l-.11.43h-53.5l-.11-3.69Z" style="fill: #fff; stroke: #000; stroke-width: 2px;"/>
    <path d="m573.62,1.04h55.78v5.86c0,3.91,0,5.86-.22,5.97,0,0-.65-.22-1.19-.65-3.26-2.28-6.62-3.15-10.42-2.82-4.77.54-8.14,2.28-14,7.16-8.25,6.73-14.32,15.84-16.06,24.09-.54,2.5-.54,7.05-.11,8.9,1.52,6.19,7.16,8.9,13.02,9.44,2.71.22,7.6-.54,11.39-1.74.98-.43,1.95-.65,2.06-.65.33,0,.33,18.45,0,18.77-.22.43-3.58,1.19-6.08,1.41-1.63.33-4.12.33-5.53.11-12.81-1.41-20.29-11.5-21.38-23.77-.43-3.04-.11-8.79.43-12.05,1.85-10.85,6.84-21.27,14.43-30.17.87-1.09.65-.98-1.19.87-3.69,3.69-7.27,6.84-12.7,6.84-2.06,0-2.17,0-3.15-.43-2.28-1.19-3.69-3.36-4.67-7.05-.11-.87-.22-2.28-.33-5.64l-.11-4.45Z" style="fill: #fff; stroke: #000; stroke-width: 2px;"/>
  </g>
</svg>